<svg width="32" height="32" viewBox="0 0 32 32" fill="none" xmlns="http://www.w3.org/2000/svg">
<path d="M26.5597 9.53164L27.7632 8.32815L23.6713 4.23625L22.4678 5.43974L26.5597 9.53164Z" fill="white"/>
<path d="M30.5316 3.39361L28.606 1.46799C28.3183 1.1803 27.9336 1.0218 27.5228 1.0218C27.112 1.0218 26.7274 1.1803 26.4396 1.46799L24.3936 3.51399L28.4856 7.60605L30.5316 5.56005C31.1289 4.96274 31.1289 3.99086 30.5316 3.39361Z" fill="#F2484B"/>
<path d="M4.06132 24.2074L2.51682 27.9584L4.04132 29.4829L7.79233 27.9383L4.06132 24.2074Z" fill="#F2EBD9"/>
<path d="M24.153 8.56874L21.6256 11.0961C21.5259 11.1958 21.3952 11.2457 21.2645 11.2457C21.1339 11.2457 21.0031 11.1959 20.9035 11.0961L20.1813 11.8182C20.3808 12.0177 20.3808 12.341 20.1813 12.5403L7.01001 25.7117L8.69495 27.3967L25.8379 10.2537L24.153 8.56874Z" fill="#FF9D49"/>
<path d="M20.9035 10.3741L23.4308 7.84668L21.7459 6.16174L4.60289 23.3047L6.28783 24.9897L19.4591 11.8184C19.6586 11.6189 19.9819 11.6189 20.1812 11.8184L20.9033 11.0962C20.7041 10.8968 20.7041 10.5735 20.9035 10.3741Z" fill="#FFCC75"/>
<path d="M2.09564 28.9813L1.4497 30.5499L3.01832 29.9041L2.09564 28.9813Z" fill="#185F8D"/>
<path d="M31.2538 2.67155L29.3281 0.745923C28.8475 0.265298 28.2064 0.000610352 27.5228 0.000610352C26.8393 0.000610352 26.1981 0.265298 25.7175 0.745923L3.51982 22.9437C3.50776 22.9557 3.49639 22.9683 3.48564 22.9815C3.47682 22.9922 3.46895 23.0034 3.46114 23.0146C3.45945 23.017 3.45745 23.0193 3.45582 23.0217C3.43601 23.0514 3.4197 23.0826 3.40682 23.1149L0.0388228 31.2943C-0.0396773 31.4849 0.00419776 31.704 0.149948 31.8498C0.247635 31.9475 0.378198 31.9994 0.511136 31.9994C0.576573 31.9994 0.642573 31.9867 0.705448 31.9609L8.88495 28.5929C8.90195 28.5861 8.91864 28.5784 8.93501 28.5696C8.9502 28.5614 8.96426 28.5531 8.97789 28.5439C8.98089 28.5419 8.9837 28.5396 8.98658 28.5376C8.99726 28.5301 9.00795 28.5226 9.01814 28.5141C9.03126 28.5034 9.04395 28.492 9.05595 28.4799L31.2538 6.28211C32.2492 5.28661 32.2492 3.66692 31.2538 2.67155ZM4.04132 29.4829L2.51682 27.9584L4.06132 24.2074L7.79233 27.9383L4.04132 29.4829ZM7.01001 25.7117L20.1813 12.5404C20.3808 12.341 20.3808 12.0177 20.1813 11.8184C19.9819 11.6189 19.6586 11.6189 19.4593 11.8184L6.28783 24.9897L4.60289 23.3047L21.7459 6.16174L23.4308 7.84668L20.9035 10.3741C20.704 10.5735 20.704 10.8968 20.9035 11.0961C21.0031 11.1958 21.1338 11.2457 21.2645 11.2457C21.3951 11.2457 21.5259 11.1959 21.6256 11.0961L24.153 8.56874L25.8379 10.2537L8.69495 27.3967L7.01001 25.7117ZM22.468 5.43968L23.6715 4.23611L27.7635 8.32811L26.56 9.53168L22.468 5.43968ZM2.09564 28.9813L3.01832 29.904L1.4497 30.5499L2.09564 28.9813ZM28.4856 7.60599L24.3936 3.51399L26.4396 1.46799C26.7274 1.1803 27.112 1.0218 27.5228 1.0218C27.9336 1.0218 28.3183 1.1803 28.606 1.46799L30.5316 3.39361C31.1288 3.99086 31.1288 4.96268 30.5316 5.55999L28.4856 7.60599Z" fill="#082947"/>
</svg>
