<svg width="35" height="35" viewBox="0 0 35 35" fill="none" xmlns="http://www.w3.org/2000/svg">
<path d="M8.44029 22.4684L7.23681 23.6718L11.3287 27.7637L12.5322 26.5603L8.44029 22.4684Z" fill="white"/>
<path d="M4.46833 28.6064L6.39396 30.532C6.68171 30.8197 7.0664 30.9782 7.47715 30.9782C7.88796 30.9782 8.27259 30.8197 8.56034 30.532L10.6063 28.486L6.51434 24.3939L4.46833 26.4399C3.87108 27.0373 3.87108 28.0091 4.46833 28.6064Z" fill="#F2484B"/>
<path d="M30.9387 7.79263L32.4832 4.04163L30.9587 2.51713L27.2077 4.06169L30.9387 7.79263Z" fill="#F2EBD9"/>
<path d="M10.847 23.4313L13.3744 20.9039C13.4741 20.8042 13.6048 20.7543 13.7355 20.7543C13.8661 20.7543 13.9968 20.8041 14.0965 20.9039L14.8187 20.1818C14.6192 19.9823 14.6192 19.659 14.8187 19.4597L27.99 6.28825L26.305 4.60332L9.16209 21.7463L10.847 23.4313Z" fill="#FF9D49"/>
<path d="M14.0965 21.6259L11.5691 24.1533L13.2541 25.8383L30.3971 8.69525L28.7122 7.01031L15.5408 20.1816C15.3414 20.3811 15.0181 20.3811 14.8188 20.1816L14.0967 20.9038C14.2959 21.1032 14.2959 21.4265 14.0965 21.6259Z" fill="#FFCC75"/>
<path d="M32.9043 3.01869L33.5503 1.45006L31.9817 2.09594L32.9043 3.01869Z" fill="#185F8D"/>
<path d="M3.74621 29.3285L5.67184 31.2541C6.15246 31.7347 6.79359 31.9994 7.47715 31.9994C8.16071 31.9994 8.80184 31.7347 9.28246 31.2541L31.4802 9.05632C31.4922 9.04425 31.5036 9.03169 31.5143 9.0185C31.5232 9.00782 31.531 8.99663 31.5388 8.98544C31.5405 8.983 31.5425 8.98069 31.5442 8.97825C31.564 8.94863 31.5803 8.91738 31.5932 8.88513L34.9612 0.705687C35.0397 0.515124 34.9958 0.296001 34.85 0.150189C34.7523 0.052501 34.6218 0.000625611 34.4888 0.000625611C34.4234 0.000625611 34.3574 0.01325 34.2945 0.0390625L26.115 3.40706C26.098 3.41388 26.0813 3.42163 26.065 3.43038C26.0498 3.43856 26.0357 3.44694 26.0221 3.45606C26.0191 3.45806 26.0163 3.46044 26.0134 3.46244C26.0027 3.46994 25.992 3.47744 25.9818 3.48588C25.9687 3.49663 25.956 3.508 25.944 3.52007L3.74621 25.7179C2.75077 26.7134 2.75077 28.3331 3.74621 29.3285ZM30.9587 2.51713L32.4832 4.04163L30.9387 7.79263L27.2077 4.06169L30.9587 2.51713ZM27.99 6.28825L14.8187 19.4596C14.6192 19.659 14.6192 19.9823 14.8187 20.1816C15.0181 20.3811 15.3414 20.3811 15.5407 20.1816L28.7122 7.01031L30.3971 8.69525L13.2541 25.8383L11.5691 24.1533L14.0965 21.6259C14.296 21.4265 14.296 21.1032 14.0965 20.9039C13.9968 20.8042 13.8662 20.7543 13.7355 20.7543C13.6048 20.7543 13.4741 20.8041 13.3744 20.9039L10.847 23.4313L9.16209 21.7463L26.305 4.60332L27.99 6.28825ZM12.532 26.5603L11.3285 27.7639L7.23646 23.6719L8.44002 22.4683L12.532 26.5603ZM32.9043 3.01869L31.9817 2.096L33.5503 1.45013L32.9043 3.01869ZM6.51434 24.394L10.6063 28.486L8.56034 30.532C8.27259 30.8197 7.88796 30.9782 7.47715 30.9782C7.0664 30.9782 6.68171 30.8197 6.39396 30.532L4.46833 28.6064C3.87115 28.0091 3.87115 27.0373 4.46833 26.44L6.51434 24.394Z" fill="#082947"/>
<line y1="32.5" x2="5" y2="32.5" stroke="black"/>
<line x1="2.5" y1="30" x2="2.5" y2="35" stroke="black"/>
</svg>
