mtllib materials.mtl

usemtl PaintedSteel
v 1 0 1
vt 39.3701 78.7402
vn 0 -1 0
v 0 0 -1
vt 0 0
v 1 0 -1
vt 39.3701 0
f 1/1/1 2/2/1 3/3/1

v 0 0 1
vt 0 78.7402
f 2/2/1 1/1/1 4/4/1

vn 0 0 1
v 0 1 1
vt 0 39.3701
f 1/3/2 5/5/2 4/2/2

v 1 1 1
vt 39.3701 39.3701
f 5/5/2 1/3/2 6/6/2

vn 1 0 0
v 1 1 -1
f 1/4/3 7/3/3 6/1/3

f 7/3/3 1/4/3 3/2/3

vn 0 0 -1
vt -39.3701 39.3701
vt -39.3701 0
f 2/2/4 7/7/4 3/8/4

v 0 1 -1
f 7/7/4 2/2/4 8/5/4

vn -1 0 0
vt -39.3701 78.7402
f 2/2/5 5/9/5 8/8/5

f 5/9/5 2/2/5 4/4/5

usemtl DarkGray
vn 0 1 0
f 5/4/6 7/8/6 8/2/6

f 7/8/6 5/4/6 6/9/6

