mtllib materials.mtl
usemtl PaintedSteel
v 0 0.5 0.5 # 1
v 0 -0.5 0.5 # 2
v 1 -0.5 0.5 # 3
v 1 0.5 0.5 # 4

v 0 0.5 -0.5 # 5
v 1 0.5 -0.5 # 6
v 1 -0.5 -0.5 # 7
v 0 -0.5 -0.5 # 8

v 0 0.5 0.5 # 9
v 1 0.5 0.5 # 10
v 1 0.5 -0.5 # 11
v 0 0.5 -0.5 # 12

v 0 -0.5 0.5 # 13
v 0 -0.5 -0.5 # 14
v 1 -0.5 -0.5 # 15
v 1 -0.5 0.5 # 16

vn 0 0 1 # 1
vn 0 0 -1 # 2
vn 0 1 0 # 3
vn 0 -1 0 # 4

# front
f 1//1 3//1 4//1
f 3//1 1//1 2//1

# back
f 5//2 7//2 8//2
f 7//2 5//2 6//2

# top
f 9//3 11//3 12//3
f 11//3 9//3 10//3

# bottom
f 13//4 15//4 16//4
f 15//4 13//4 14//4
