v 0.500000 0.000000 0.200000 # 1
v 0.500000 0.000000 0.000000 # 2
v 0.482963 0.129410 0.200000 # 3
v 0.482963 0.129410 0.000000 # 4
v 0.433013 0.250000 0.200000 # 5
v 0.433013 0.250000 0.000000 # 6
v 0.353553 0.353553 0.200000 # 7
v 0.353553 0.353553 0.000000 # 8
v 0.250000 0.433013 0.200000 # 9
v 0.250000 0.433013 0.000000 # 10
v 0.129410 0.482963 0.200000 # 11
v 0.129410 0.482963 0.000000 # 12
v 0.000000 0.500000 0.200000 # 13
v 0.000000 0.500000 0.000000 # 14
v -0.129410 0.482963 0.200000 # 15
v -0.129410 0.482963 0.000000 # 16
v -0.250000 0.433013 0.200000 # 17
v -0.250000 0.433013 0.000000 # 18
v -0.353553 0.353553 0.200000 # 19
v -0.353553 0.353553 0.000000 # 20
v -0.433013 0.250000 0.200000 # 21
v -0.433013 0.250000 0.000000 # 22
v -0.482963 0.129410 0.200000 # 23
v -0.482963 0.129410 0.000000 # 24
v -0.500000 0.000000 0.200000 # 25
v -0.500000 0.000000 0.000000 # 26
v -0.482963 -0.129410 0.200000 # 27
v -0.482963 -0.129410 0.000000 # 28
v -0.433013 -0.250000 0.200000 # 29
v -0.433013 -0.250000 0.000000 # 30
v -0.353553 -0.353553 0.200000 # 31
v -0.353553 -0.353553 0.000000 # 32
v -0.250000 -0.433013 0.200000 # 33
v -0.250000 -0.433013 0.000000 # 34
v -0.129410 -0.482963 0.200000 # 35
v -0.129410 -0.482963 0.000000 # 36
v -0.000000 -0.500000 0.200000 # 37
v -0.000000 -0.500000 0.000000 # 38
v 0.129410 -0.482963 0.200000 # 39
v 0.129410 -0.482963 0.000000 # 40
v 0.250000 -0.433013 0.200000 # 41
v 0.250000 -0.433013 0.000000 # 42
v 0.353553 -0.353553 0.200000 # 43
v 0.353553 -0.353553 0.000000 # 44
v 0.433013 -0.250000 0.200000 # 45
v 0.433013 -0.250000 0.000000 # 46
v 0.482963 -0.129410 0.200000 # 47
v 0.482963 -0.129410 0.000000 # 48
v 0.500000 -0.000000 0.200000 # 49
v 0.500000 -0.000000 0.000000 # 50
v 0.300000 0.000000 0.200000 # 51
v 0.289778 0.077646 0.200000 # 52
v 0.259808 0.150000 0.200000 # 53
v 0.212132 0.212132 0.200000 # 54
v 0.150000 0.259808 0.200000 # 55
v 0.077646 0.289778 0.200000 # 56
v 0.000000 0.300000 0.200000 # 57
v -0.077646 0.289778 0.200000 # 58
v -0.150000 0.259808 0.200000 # 59
v -0.212132 0.212132 0.200000 # 60
v -0.259808 0.150000 0.200000 # 61
v -0.289778 0.077646 0.200000 # 62
v -0.300000 0.000000 0.200000 # 63
v -0.289778 -0.077646 0.200000 # 64
v -0.259808 -0.150000 0.200000 # 65
v -0.212132 -0.212132 0.200000 # 66
v -0.150000 -0.259808 0.200000 # 67
v -0.077646 -0.289778 0.200000 # 68
v -0.000000 -0.300000 0.200000 # 69
v 0.077646 -0.289778 0.200000 # 70
v 0.150000 -0.259808 0.200000 # 71
v 0.212132 -0.212132 0.200000 # 72
v 0.259808 -0.150000 0.200000 # 73
v 0.289778 -0.077646 0.200000 # 74
v 0.300000 -0.000000 0.200000 # 75
v 0.300000 0.000000 0.000000 # 76
v 0.289778 0.077646 0.000000 # 77
v 0.259808 0.150000 0.000000 # 78
v 0.212132 0.212132 0.000000 # 79
v 0.150000 0.259808 0.000000 # 80
v 0.077646 0.289778 0.000000 # 81
v 0.000000 0.300000 0.000000 # 82
v -0.077646 0.289778 0.000000 # 83
v -0.150000 0.259808 0.000000 # 84
v -0.212132 0.212132 0.000000 # 85
v -0.259808 0.150000 0.000000 # 86
v -0.289778 0.077646 0.000000 # 87
v -0.300000 0.000000 0.000000 # 88
v -0.289778 -0.077646 0.000000 # 89
v -0.259808 -0.150000 0.000000 # 90
v -0.212132 -0.212132 0.000000 # 91
v -0.150000 -0.259808 0.000000 # 92
v -0.077646 -0.289778 0.000000 # 93
v -0.000000 -0.300000 0.000000 # 94
v 0.077646 -0.289778 0.000000 # 95
v 0.150000 -0.259808 0.000000 # 96
v 0.212132 -0.212132 0.000000 # 97
v 0.259808 -0.150000 0.000000 # 98
v 0.289778 -0.077646 0.000000 # 99
v 0.300000 -0.000000 0.000000 # 100
v 0.250000 0.000000 0.170000 # 101
v 0.241481 0.064705 0.170000 # 102
v 0.216506 0.125000 0.170000 # 103
v 0.176777 0.176777 0.170000 # 104
v 0.125000 0.216506 0.170000 # 105
v 0.064705 0.241481 0.170000 # 106
v 0.000000 0.250000 0.170000 # 107
v -0.064705 0.241481 0.170000 # 108
v -0.125000 0.216506 0.170000 # 109
v -0.176777 0.176777 0.170000 # 110
v -0.216506 0.125000 0.170000 # 111
v -0.241481 0.064705 0.170000 # 112
v -0.250000 0.000000 0.170000 # 113
v -0.241481 -0.064705 0.170000 # 114
v -0.216506 -0.125000 0.170000 # 115
v -0.176777 -0.176777 0.170000 # 116
v -0.125000 -0.216506 0.170000 # 117
v -0.064705 -0.241481 0.170000 # 118
v -0.000000 -0.250000 0.170000 # 119
v 0.064705 -0.241481 0.170000 # 120
v 0.125000 -0.216506 0.170000 # 121
v 0.176777 -0.176777 0.170000 # 122
v 0.216506 -0.125000 0.170000 # 123
v 0.241481 -0.064705 0.170000 # 124
v 0.250000 -0.000000 0.170000 # 125
v 0.000000 0.000000 0.160000 # 126
v 0.300000 -0.000000 0.160000 # 127
v 0.289778 -0.077646 0.160000 # 128
v 0.259808 -0.150000 0.160000 # 129
v 0.212132 -0.212132 0.160000 # 130
v 0.150000 -0.259808 0.160000 # 131
v 0.077646 -0.289778 0.160000 # 132
v -0.000000 -0.300000 0.160000 # 133
v -0.077646 -0.289778 0.160000 # 134
v -0.150000 -0.259808 0.160000 # 135
v -0.212132 -0.212132 0.160000 # 136
v -0.259808 -0.150000 0.160000 # 137
v -0.289778 -0.077646 0.160000 # 138
v -0.300000 0.000000 0.160000 # 139
v -0.289778 0.077646 0.160000 # 140
v -0.259808 0.150000 0.160000 # 141
v -0.212132 0.212132 0.160000 # 142
v -0.150000 0.259808 0.160000 # 143
v -0.077646 0.289778 0.160000 # 144
v 0.000000 0.300000 0.160000 # 145
v 0.077646 0.289778 0.160000 # 146
v 0.150000 0.259808 0.160000 # 147
v 0.212132 0.212132 0.160000 # 148
v 0.259808 0.150000 0.160000 # 149
v 0.289778 0.077646 0.160000 # 150
v 0.300000 0.000000 0.160000 # 151
v 0.200000 0.000000 0.240000 # 152
v 0.193185 0.051764 0.240000 # 153
v 0.173205 0.100000 0.240000 # 154
v 0.141421 0.141421 0.240000 # 155
v 0.100000 0.173205 0.240000 # 156
v 0.051764 0.193185 0.240000 # 157
v 0.000000 0.200000 0.240000 # 158
v -0.051764 0.193185 0.240000 # 159
v -0.100000 0.173205 0.240000 # 160
v -0.141421 0.141421 0.240000 # 161
v -0.173205 0.100000 0.240000 # 162
v -0.193185 0.051764 0.240000 # 163
v -0.200000 0.000000 0.240000 # 164
v -0.193185 -0.051764 0.240000 # 165
v -0.173205 -0.100000 0.240000 # 166
v -0.141421 -0.141421 0.240000 # 167
v -0.100000 -0.173205 0.240000 # 168
v -0.051764 -0.193185 0.240000 # 169
v -0.000000 -0.200000 0.240000 # 170
v 0.051764 -0.193185 0.240000 # 171
v 0.100000 -0.173205 0.240000 # 172
v 0.141421 -0.141421 0.240000 # 173
v 0.173205 -0.100000 0.240000 # 174
v 0.193185 -0.051764 0.240000 # 175
v 0.200000 -0.000000 0.240000 # 176
v 0.000000 0.000000 0.280000 # 177
v 0.220000 0.000000 0.222000 # 178
v 0.240000 0.000000 0.194000 # 179
v 0.212504 0.056940 0.222000 # 180
v 0.231822 0.062117 0.194000 # 181
v 0.190526 0.110000 0.222000 # 182
v 0.207846 0.120000 0.194000 # 183
v 0.155563 0.155563 0.222000 # 184
v 0.169706 0.169706 0.194000 # 185
v 0.000000 0.220000 0.222000 # 186
v 0.000000 0.240000 0.194000 # 187
v -0.056940 0.212504 0.222000 # 188
v -0.062117 0.231822 0.194000 # 189
v -0.110000 0.190526 0.222000 # 190
v -0.120000 0.207846 0.194000 # 191
v -0.155563 0.155563 0.222000 # 192
v -0.169706 0.169706 0.194000 # 193
v -0.220000 0.000000 0.222000 # 194
v -0.240000 0.000000 0.194000 # 195
v -0.212504 -0.056940 0.222000 # 196
v -0.231822 -0.062117 0.194000 # 197
v -0.190526 -0.110000 0.222000 # 198
v -0.207846 -0.120000 0.194000 # 199
v -0.155563 -0.155563 0.222000 # 200
v -0.169706 -0.169706 0.194000 # 201
v -0.000000 -0.220000 0.222000 # 202
v -0.000000 -0.240000 0.194000 # 203
v 0.056940 -0.212504 0.222000 # 204
v 0.062117 -0.231822 0.194000 # 205
v 0.110000 -0.190526 0.222000 # 206
v 0.120000 -0.207846 0.194000 # 207
v 0.155563 -0.155563 0.222000 # 208
v 0.169706 -0.169706 0.194000 # 209

vn 1.000000 0.000000 0.000000 # 1
vn 0.965926 0.258819 0.000000 # 2
vn 0.866025 0.500000 0.000000 # 3
vn 0.707107 0.707107 0.000000 # 4
vn 0.500000 0.866025 0.000000 # 5
vn 0.258819 0.965926 0.000000 # 6
vn 0.000000 1.000000 0.000000 # 7
vn -0.258819 0.965926 0.000000 # 8
vn -0.500000 0.866025 0.000000 # 9
vn -0.707107 0.707107 0.000000 # 10
vn -0.866025 0.500000 0.000000 # 11
vn -0.965926 0.258819 0.000000 # 12
vn -1.000000 0.000000 0.000000 # 13
vn -0.965926 -0.258819 0.000000 # 14
vn -0.866025 -0.500000 0.000000 # 15
vn -0.707107 -0.707107 0.000000 # 16
vn -0.500000 -0.866025 0.000000 # 17
vn -0.258819 -0.965926 0.000000 # 18
vn -0.000000 -1.000000 0.000000 # 19
vn 0.258819 -0.965926 0.000000 # 20
vn 0.500000 -0.866025 0.000000 # 21
vn 0.707107 -0.707107 0.000000 # 22
vn 0.866025 -0.500000 0.000000 # 23
vn 0.965926 -0.258819 0.000000 # 24
vn 1.000000 -0.000000 0.000000 # 25
vn -0.400000 -0.000000 0.916515 # 26
vn 0.400000 0.000000 0.916515 # 27
vn -0.386370 -0.103528 0.916515 # 28
vn 0.386370 0.103528 0.916515 # 29
vn -0.346410 -0.200000 0.916515 # 30
vn 0.346410 0.200000 0.916515 # 31
vn -0.282843 -0.282843 0.916515 # 32
vn 0.282843 0.282843 0.916515 # 33
vn -0.200000 -0.346410 0.916515 # 34
vn 0.200000 0.346410 0.916515 # 35
vn -0.103528 -0.386370 0.916515 # 36
vn 0.103528 0.386370 0.916515 # 37
vn -0.000000 -0.400000 0.916515 # 38
vn 0.000000 0.400000 0.916515 # 39
vn 0.103528 -0.386370 0.916515 # 40
vn -0.103528 0.386370 0.916515 # 41
vn 0.200000 -0.346410 0.916515 # 42
vn -0.200000 0.346410 0.916515 # 43
vn 0.282843 -0.282843 0.916515 # 44
vn -0.282843 0.282843 0.916515 # 45
vn 0.346410 -0.200000 0.916515 # 46
vn -0.346410 0.200000 0.916515 # 47
vn 0.386370 -0.103528 0.916515 # 48
vn -0.386370 0.103528 0.916515 # 49
vn 0.400000 -0.000000 0.916515 # 50
vn -0.400000 0.000000 0.916515 # 51
vn 0.000000 0.400000 0.916515 # 52
vn -0.000000 -0.400000 0.916515 # 53
vn -0.400000 0.000000 0.916515 # 54
vn 0.400000 -0.000000 0.916515 # 55
vn 0.400000 0.000000 -0.916515 # 56
vn -0.400000 -0.000000 -0.916515 # 57
vn 0.386370 0.103528 -0.916515 # 58
vn -0.386370 -0.103528 -0.916515 # 59
vn 0.346410 0.200000 -0.916515 # 60
vn -0.346410 -0.200000 -0.916515 # 61
vn 0.282843 0.282843 -0.916515 # 62
vn -0.282843 -0.282843 -0.916515 # 63
vn 0.200000 0.346410 -0.916515 # 64
vn -0.200000 -0.346410 -0.916515 # 65
vn 0.103528 0.386370 -0.916515 # 66
vn -0.103528 -0.386370 -0.916515 # 67
vn 0.000000 0.400000 -0.916515 # 68
vn -0.000000 -0.400000 -0.916515 # 69
vn -0.103528 0.386370 -0.916515 # 70
vn 0.103528 -0.386370 -0.916515 # 71
vn -0.200000 0.346410 -0.916515 # 72
vn 0.200000 -0.346410 -0.916515 # 73
vn -0.282843 0.282843 -0.916515 # 74
vn 0.282843 -0.282843 -0.916515 # 75
vn -0.346410 0.200000 -0.916515 # 76
vn 0.346410 -0.200000 -0.916515 # 77
vn -0.386370 0.103528 -0.916515 # 78
vn 0.386370 -0.103528 -0.916515 # 79
vn -0.400000 0.000000 -0.916515 # 80
vn 0.400000 -0.000000 -0.916515 # 81
vn -0.000000 -0.400000 -0.916515 # 82
vn 0.000000 0.400000 -0.916515 # 83
vn 0.400000 -0.000000 -0.916515 # 84
vn -0.400000 0.000000 -0.916515 # 85
vn -1.000000 -0.000000 0.000000 # 86
vn -0.000000 -1.000000 0.000000 # 87
vn 1.000000 -0.000000 0.000000 # 88
vn 0.000000 1.000000 0.000000 # 89
vn -1.000000 0.000000 0.000000 # 90
vn 0.000000 0.000000 -1.000000 # 91
vn 0.624695 0.000000 0.780869 # 92
vn 0.603409 0.161683 0.780869 # 93
vn 0.541002 0.312348 0.780869 # 94
vn 0.441726 0.441726 0.780869 # 95
vn 0.312348 0.541002 0.780869 # 96
vn 0.161683 0.603409 0.780869 # 97
vn 0.000000 0.624695 0.780869 # 98
vn -0.161683 0.603409 0.780869 # 99
vn -0.312348 0.541002 0.780869 # 100
vn -0.441726 0.441726 0.780869 # 101
vn -0.541002 0.312348 0.780869 # 102
vn -0.603409 0.161683 0.780869 # 103
vn -0.624695 0.000000 0.780869 # 104
vn -0.603409 -0.161683 0.780869 # 105
vn -0.541002 -0.312348 0.780869 # 106
vn -0.441726 -0.441726 0.780869 # 107
vn -0.312348 -0.541002 0.780869 # 108
vn -0.161683 -0.603409 0.780869 # 109
vn -0.000000 -0.624695 0.780869 # 110
vn 0.161683 -0.603409 0.780869 # 111
vn 0.312348 -0.541002 0.780869 # 112
vn 0.441726 -0.441726 0.780869 # 113
vn 0.541002 -0.312348 0.780869 # 114
vn 0.603409 -0.161683 0.780869 # 115
vn 0.624695 -0.000000 0.780869 # 116
vn 0.000000 0.000000 1.000000 # 117

mtllib materials.mtl
usemtl DarkGray
f 3//2 1//1 4//2
f 2//1 4//2 1//1
f 5//3 3//2 6//3
f 4//2 6//3 3//2
f 7//4 5//3 8//4
f 6//3 8//4 5//3
f 9//5 7//4 10//5
f 8//4 10//5 7//4
f 11//6 9//5 12//6
f 10//5 12//6 9//5
f 13//7 11//6 14//7
f 12//6 14//7 11//6
f 15//8 13//7 16//8
f 14//7 16//8 13//7
f 17//9 15//8 18//9
f 16//8 18//9 15//8
f 19//10 17//9 20//10
f 18//9 20//10 17//9
f 21//11 19//10 22//11
f 20//10 22//11 19//10
f 23//12 21//11 24//12
f 22//11 24//12 21//11
f 25//13 23//12 26//13
f 24//12 26//13 23//12
f 27//14 25//13 28//14
f 26//13 28//14 25//13
f 29//15 27//14 30//15
f 28//14 30//15 27//14
f 31//16 29//15 32//16
f 30//15 32//16 29//15
f 33//17 31//16 34//17
f 32//16 34//17 31//16
f 35//18 33//17 36//18
f 34//17 36//18 33//17
f 37//19 35//18 38//19
f 36//18 38//19 35//18
f 39//20 37//19 40//20
f 38//19 40//20 37//19
f 41//21 39//20 42//21
f 40//20 42//21 39//20
f 43//22 41//21 44//22
f 42//21 44//22 41//21
f 45//23 43//22 46//23
f 44//22 46//23 43//22
f 47//24 45//23 48//24
f 46//23 48//24 45//23
f 49//25 47//24 50//25
f 48//24 50//25 47//24
f 52//28 51//26 3//29
f 1//27 3//29 51//26
f 53//30 52//28 5//31
f 3//29 5//31 52//28
f 54//32 53//30 7//33
f 5//31 7//33 53//30
f 55//34 54//32 9//35
f 7//33 9//35 54//32
f 56//36 55//34 11//37
f 9//35 11//37 55//34
f 57//38 56//36 13//39
f 11//37 13//39 56//36
f 58//40 57//38 15//41
f 13//39 15//41 57//38
f 59//42 58//40 17//43
f 15//41 17//43 58//40
f 60//44 59//42 19//45
f 17//43 19//45 59//42
f 61//46 60//44 21//47
f 19//45 21//47 60//44
f 62//48 61//46 23//49
f 21//47 23//49 61//46
f 63//50 62//48 25//51
f 23//49 25//51 62//48
f 64//29 63//50 27//28
f 25//51 27//28 63//50
f 65//31 64//29 29//30
f 27//28 29//30 64//29
f 66//33 65//31 31//32
f 29//30 31//32 65//31
f 67//35 66//33 33//34
f 31//32 33//34 66//33
f 68//37 67//35 35//36
f 33//34 35//36 67//35
f 69//52 68//37 37//53
f 35//36 37//53 68//37
f 70//41 69//52 39//40
f 37//53 39//40 69//52
f 71//43 70//41 41//42
f 39//40 41//42 70//41
f 72//45 71//43 43//44
f 41//42 43//44 71//43
f 73//47 72//45 45//46
f 43//44 45//46 72//45
f 74//49 73//47 47//48
f 45//46 47//48 73//47
f 75//54 74//49 49//55
f 47//48 49//55 74//49
f 4//58 2//56 77//59
f 76//57 77//59 2//56
f 6//60 4//58 78//61
f 77//59 78//61 4//58
f 8//62 6//60 79//63
f 78//61 79//63 6//60
f 10//64 8//62 80//65
f 79//63 80//65 8//62
f 12//66 10//64 81//67
f 80//65 81//67 10//64
f 14//68 12//66 82//69
f 81//67 82//69 12//66
f 16//70 14//68 83//71
f 82//69 83//71 14//68
f 18//72 16//70 84//73
f 83//71 84//73 16//70
f 20//74 18//72 85//75
f 84//73 85//75 18//72
f 22//76 20//74 86//77
f 85//75 86//77 20//74
f 24//78 22//76 87//79
f 86//77 87//79 22//76
f 26//80 24//78 88//81
f 87//79 88//81 24//78
f 28//59 26//80 89//58
f 88//81 89//58 26//80
f 30//61 28//59 90//60
f 89//58 90//60 28//59
f 32//63 30//61 91//62
f 90//60 91//62 30//61
f 34//65 32//63 92//64
f 91//62 92//64 32//63
f 36//67 34//65 93//66
f 92//64 93//66 34//65
f 38//82 36//67 94//83
f 93//66 94//83 36//67
f 40//71 38//82 95//70
f 94//83 95//70 38//82
f 42//73 40//71 96//72
f 95//70 96//72 40//71
f 44//75 42//73 97//74
f 96//72 97//74 42//73
f 46//77 44//75 98//76
f 97//74 98//76 44//75
f 48//79 46//77 99//78
f 98//76 99//78 46//77
f 50//84 48//79 100//85
f 99//78 100//85 48//79
usemtl Orange
f 77//14 76//86 52//14
f 51//86 52//14 76//86
f 78//15 77//14 53//15
f 52//14 53//15 77//14
f 79//16 78//15 54//16
f 53//15 54//16 78//15
f 80//17 79//16 55//17
f 54//16 55//17 79//16
f 81//18 80//17 56//18
f 55//17 56//18 80//17
f 82//87 81//18 57//87
f 56//18 57//87 81//18
f 83//20 82//87 58//20
f 57//87 58//20 82//87
f 84//21 83//20 59//21
f 58//20 59//21 83//20
f 85//22 84//21 60//22
f 59//21 60//22 84//21
f 86//23 85//22 61//23
f 60//22 61//23 85//22
f 87//24 86//23 62//24
f 61//23 62//24 86//23
f 88//88 87//24 63//88
f 62//24 63//88 87//24
f 89//2 88//88 64//2
f 63//88 64//2 88//88
f 90//3 89//2 65//3
f 64//2 65//3 89//2
f 91//4 90//3 66//4
f 65//3 66//4 90//3
f 92//5 91//4 67//5
f 66//4 67//5 91//4
f 93//6 92//5 68//6
f 67//5 68//6 92//5
f 94//89 93//6 69//89
f 68//6 69//89 93//6
f 95//8 94//89 70//8
f 69//89 70//8 94//89
f 96//9 95//8 71//9
f 70//8 71//9 95//8
f 97//10 96//9 72//10
f 71//9 72//10 96//9
f 98//11 97//10 73//11
f 72//10 73//11 97//10
f 99//12 98//11 74//12
f 73//11 74//12 98//11
f 100//90 99//12 75//90
f 74//12 75//90 99//12
usemtl Aluminum
f 102//28 101//26 52//29
f 51//27 52//29 101//26
f 103//30 102//28 53//31
f 52//29 53//31 102//28
f 104//32 103//30 54//33
f 53//31 54//33 103//30
f 105//34 104//32 55//35
f 54//33 55//35 104//32
f 106//36 105//34 56//37
f 55//35 56//37 105//34
f 107//38 106//36 57//39
f 56//37 57//39 106//36
f 108//40 107//38 58//41
f 57//39 58//41 107//38
f 109//42 108//40 59//43
f 58//41 59//43 108//40
f 110//44 109//42 60//45
f 59//43 60//45 109//42
f 111//46 110//44 61//47
f 60//45 61//47 110//44
f 112//48 111//46 62//49
f 61//47 62//49 111//46
f 113//50 112//48 63//51
f 62//49 63//51 112//48
f 114//29 113//50 64//28
f 63//51 64//28 113//50
f 115//31 114//29 65//30
f 64//28 65//30 114//29
f 116//33 115//31 66//32
f 65//30 66//32 115//31
f 117//35 116//33 67//34
f 66//32 67//34 116//33
f 118//37 117//35 68//36
f 67//34 68//36 117//35
f 119//52 118//37 69//53
f 68//36 69//53 118//37
f 120//41 119//52 70//40
f 69//53 70//40 119//52
f 121//43 120//41 71//42
f 70//40 71//42 120//41
f 122//45 121//43 72//44
f 71//42 72//44 121//43
f 123//47 122//45 73//46
f 72//44 73//46 122//45
f 124//49 123//47 74//48
f 73//46 74//48 123//47
f 125//54 124//49 75//55
f 74//48 75//55 124//49
f 128//91 126//91 127//91
f 129//91 126//91 128//91
f 130//91 126//91 129//91
f 131//91 126//91 130//91
f 132//91 126//91 131//91
f 133//91 126//91 132//91
f 134//91 126//91 133//91
f 135//91 126//91 134//91
f 136//91 126//91 135//91
f 137//91 126//91 136//91
f 138//91 126//91 137//91
f 139//91 126//91 138//91
f 140//91 126//91 139//91
f 141//91 126//91 140//91
f 142//91 126//91 141//91
f 143//91 126//91 142//91
f 144//91 126//91 143//91
f 145//91 126//91 144//91
f 146//91 126//91 145//91
f 147//91 126//91 146//91
f 148//91 126//91 147//91
f 149//91 126//91 148//91
f 150//91 126//91 149//91
f 151//91 126//91 150//91
usemtl Orange
f 153//93 152//92 102//93
f 101//92 102//93 152//92
f 154//94 153//93 103//94
f 102//93 103//94 153//93
f 155//95 154//94 104//95
f 103//94 104//95 154//94
f 156//96 155//95 105//96
f 104//95 105//96 155//95
f 157//97 156//96 106//97
f 105//96 106//97 156//96
f 158//98 157//97 107//98
f 106//97 107//98 157//97
f 159//99 158//98 108//99
f 107//98 108//99 158//98
f 160//100 159//99 109//100
f 108//99 109//100 159//99
f 161//101 160//100 110//101
f 109//100 110//101 160//100
f 162//102 161//101 111//102
f 110//101 111//102 161//101
f 163//103 162//102 112//103
f 111//102 112//103 162//102
f 164//104 163//103 113//104
f 112//103 113//104 163//103
f 165//105 164//104 114//105
f 113//104 114//105 164//104
f 166//106 165//105 115//106
f 114//105 115//106 165//105
f 167//107 166//106 116//107
f 115//106 116//107 166//106
f 168//108 167//107 117//108
f 116//107 117//108 167//107
f 169//109 168//108 118//109
f 117//108 118//109 168//108
f 170//110 169//109 119//110
f 118//109 119//110 169//109
f 171//111 170//110 120//111
f 119//110 120//111 170//110
f 172//112 171//111 121//112
f 120//111 121//112 171//111
f 173//113 172//112 122//113
f 121//112 122//113 172//112
f 174//114 173//113 123//114
f 122//113 123//114 173//113
f 175//115 174//114 124//115
f 123//114 124//115 174//114
f 176//116 175//115 125//116
f 124//115 125//116 175//115
usemtl PaintedSteel
f 153//93 177//117 152//92
f 154//94 177//117 153//93
f 155//95 177//117 154//94
f 156//96 177//117 155//95
f 157//97 177//117 156//96
f 158//98 177//117 157//97
f 159//99 177//117 158//98
f 160//100 177//117 159//99
f 161//101 177//117 160//100
f 162//102 177//117 161//101
f 163//103 177//117 162//102
f 164//104 177//117 163//103
f 165//105 177//117 164//104
f 166//106 177//117 165//105
f 167//107 177//117 166//106
f 168//108 177//117 167//107
f 169//109 177//117 168//108
f 170//110 177//117 169//109
f 171//111 177//117 170//110
f 172//112 177//117 171//111
f 173//113 177//117 172//112
f 174//114 177//117 173//113
f 175//115 177//117 174//114
f 176//116 177//117 175//115
usemtl Black
f 180//91 178//91 181//91
f 179//91 181//91 178//91
f 182//91 180//91 183//91
f 181//91 183//91 180//91
f 184//91 182//91 185//91
f 183//91 185//91 182//91
f 188//91 186//91 189//91
f 187//91 189//91 186//91
f 190//91 188//91 191//91
f 189//91 191//91 188//91
f 192//91 190//91 193//91
f 191//91 193//91 190//91
f 196//91 194//91 197//91
f 195//91 197//91 194//91
f 198//91 196//91 199//91
f 197//91 199//91 196//91
f 200//91 198//91 201//91
f 199//91 201//91 198//91
f 204//91 202//91 205//91
f 203//91 205//91 202//91
f 206//91 204//91 207//91
f 205//91 207//91 204//91
f 208//91 206//91 209//91
f 207//91 209//91 206//91
f 180//91 178//91 181//91
f 179//91 181//91 178//91
f 182//91 180//91 183//91
f 181//91 183//91 180//91
f 184//91 182//91 185//91
f 183//91 185//91 182//91

